<?xml version="1.0" encoding="UTF-8"?>
<svg id="Layer_2" xmlns="http://www.w3.org/2000/svg" viewBox="0 0 829.06 1018.89">
  <defs>
    <style>
      .cls-1, .cls-2 {
        fill: #23b4b7;
      }

      .cls-1, .cls-3 {
        fill-rule: evenodd;
      }

      .cls-4, .cls-5, .cls-3 {
        fill: #002447;
      }

      .cls-5 {
        font-size: 94.84px;
      }

      .cls-5, .cls-6 {
        font-family: Gotham-Medium, Gotham;
        font-weight: 500;
      }

      .cls-7 {
        fill: #97c938;
      }

      .cls-6 {
        font-size: 223.43px;
      }
    </style>
  </defs>
  <g id="Layer_1-2" data-name="Layer_1">
    <text class="cls-6" transform="translate(50.71 905.06)"><tspan class="cls-7" x="0" y="0">SHRI</tspan><tspan class="cls-4" x="491.54" y="0"> </tspan><tspan class="cls-2" x="545.17" y="0">JI</tspan></text>
    <text class="cls-5" transform="translate(61.23 1002.77)"><tspan x="0" y="0">PEST CONTROL</tspan></text>
    <g>
      <path class="cls-1" d="M136.79,451.75c60,102.17,146.05,191.3,254.74,258.85,178.28-110.74,295.53-279.76,336.33-469.02,25.33-41.68,51.61-92.53,73.87-152.46,11.35-30.56,20.28-59.74,27.33-87.01-31.32,61.95-76.52,131.34-142.39,196.23C435.13,446.16,83.69,430.03,0,423.97c14.58,6.42,31.91,12.79,51.8,17.82,32.91,8.32,62.21,10.26,85,9.96ZM631.18,299.87c-37.02,125.14-116.22,236.22-239.65,312.67-32.57-21.93-62.4-45.93-89.14-72.34,22.63-51.43,45.6-94.62,69.26-130.28,86.74-25.71,177.25-63.07,259.53-110.05h0ZM236.22,463.07c-4.46-6.18-8.58-12.69-13.03-19.21,7.2-1.03,14.05-2.06,21.26-3.43-3.09,7.19-5.83,14.74-8.23,22.63h0Z"/>
      <path class="cls-7" d="M113.18,401.92c14.04-.18,29.68-1.1,46.59-3.25,15.72-2,30.09-4.76,42.95-7.81-15.61-25.77-34.02-61.89-47.48-107.53-13.47-45.65-17.62-85.99-18.5-116.12,81.11-40.45,163.21-66.85,254.73-68.76,62.73-1.31,125.64,5.95,185.66,22.87,6.49,48.22-228.48,176.24-282.89,246.99,154.2-38.2,274.04-96.26,359.52-173.83l3.37-3.15,1.35-1.06,3.02-3.16,1.35-1.06,3.02-3.15,1.35-1.06,3.36-3.15,1.01-1.06,3.36-3.5,1.01-1.05,3.02-3.14,1.35-1.06,3.02-3.15,1.01-1.05,3-3.84.68-.36c21.12-23.08,39.46-47.8,55.38-74.19-64.16-34.33-131.87-58.29-201.43-72.26C491.68,4.11,440.48-.65,389.4.07,267.74,3.64,147.05,37.38,38.99,101.02c1.28,61.36,10.42,121.17,27.06,179.13,11.85,41.93,27.79,82.75,47.13,121.78Z"/>
      <path class="cls-3" d="M493.52,530.38c-43.81-37-77.22-88.23-100.24-154.04,18.42-6.48,36.47-13.28,54.19-20.44,32.18,59.83,47.54,118.22,46.06,174.47h0ZM383.72,342.47c-5.65-19.06-10.96-39.17-15.28-60.32l.99,65.15c-3.41,1.13-6.81,1.9-10.21,3.02l-2.9-86.04s-12.38,25.36-36.8,76.43l4.29,20.14c-2.72.76-5.45,1.51-8.17,2.27l-5.76-23.87s14.08-26.1,41.9-78.28c-84.17,88.63-156.72,109.37-216.96,61.86,47.92-57.5,117.58-83.66,208.29-78.8,0,0-16.99-6.76-51.29-19.94,0,0-8.75-19.68-26.91-59.01,0,0-21.93,1.25-66.12,3.76,0,0,23.94-3.02,72.15-9.41,0,0,8.41,20.03,25.22,59.74,0,0,14.56,5.81,43.68,17.41-6.42-9.45-6.61-16.98-.91-21.94-8.4-6.3-8.94-14.18-.96-23.99l-29.78-77.11,38.59,72.77c12.71.7,18.34,6.04,17.59,16.7,7.52-1.22,12.8,4.14,16.17,15.02,9.86-29.76,14.97-44.64,14.97-44.64-18.84-38.63-28.25-57.95-28.25-57.95,36.23-32.15,54.33-48.4,54.33-48.4-31.08,31.67-46.45,47.85-46.45,47.85,18.16,39,26.9,58.67,26.9,58.67-12.14,34.63-18.22,51.93-18.22,51.93,55.78-72.11,121.08-107.42,195.91-106.26-3.51,76.6-66.6,118.02-188.6,123.57,57.64,13.28,86.28,19.73,86.28,19.73l23.83,32.67c-2.37,1.09-5.08,2.53-7.45,3.62l-21.31-28.27c-54.59-14.72-82.22-21.9-82.22-21.9l70.64,65.08c-3.4,1.46-7.13,2.93-10.53,4.04l-54.08-48.34c14.2,18.5,26.68,36.7,37.78,54.95-16.3,6.25-32.96,12.52-50.31,18.1h0ZM371.14,383.39l.22,15.44s14,20.02,42.35,59.73c0,0-.48,14.08-1.8,42.21,0,0-2.25-13.69-7.11-41.38,0,0-14.35-20.03-43.05-60.76l-.18-12.34c3.07-1.07,6.48-1.8,9.56-2.89h0ZM330.88,394.79l2,9.96s-10.34,10.57-30.36,32.4c0,0,7.27-11.27,21.8-33.82l-1.33-6.53c2.4-.67,5.15-1.34,7.9-2.01h0ZM522.24,320.21l29.74,4.37-40.79,1.32c3.69-1.89,7.36-3.79,11.05-5.69h0ZM481.02,340.94l3.18,3c11.33,48.37,17.16,72.56,17.16,72.56,17.43,21.8,26.31,32.52,26.31,32.52-22.11-17.54-33-26.49-33-26.49-10.96-47.37-16.78-71.21-16.78-71.21l-6.69-5.99c3.38-1.47,6.43-2.93,9.82-4.39h0Z"/>
    </g>
  </g>
</svg>